<?xml version="1.0" encoding="iso-8859-1"?>
<!-- Uploaded to: SVG Repo, www.svgrepo.com, Generator: SVG Repo Mixer Tools -->
<svg version="1.1" id="Layer_1" xmlns="http://www.w3.org/2000/svg" xmlns:xlink="http://www.w3.org/1999/xlink" 
	 viewBox="0 0 327.96 327.96" xml:space="preserve">
<g id="XMLID_3_">
	<g id="XMLID_51_">
		<g id="XMLID_833_">
			<path id="XMLID_834_" style="fill:#FCE98E;" d="M244.994,104.206h-22.223V81.044c0-32.418-26.374-58.791-58.792-58.791
				s-58.792,26.374-58.792,58.791v23.161H82.966V81.044c0-44.671,36.343-81.014,81.014-81.014s81.014,36.343,81.014,81.014
				L244.994,104.206L244.994,104.206z"/>
		</g>
		<path id="XMLID_837_" style="fill:#FAE16E;" d="M163.98,0.03v22.223c32.418,0,58.792,26.374,58.792,58.791v23.161h22.223V81.044
			C244.994,36.373,208.652,0.03,163.98,0.03z"/>
	</g>
	<g id="XMLID_41_">
		<g id="XMLID_842_">
			<g id="XMLID_1285_">
				<path id="XMLID_1286_" style="fill:#1DD2A5;" d="M298.78,89.58H29.18C13.06,89.58,0,102.639,0,118.76v179.99
					c0,16.11,13.06,29.18,29.18,29.18h269.6c16.11,0,29.18-13.07,29.18-29.18V118.76C327.96,102.639,314.89,89.58,298.78,89.58z"/>
			</g>
		</g>
		<g id="XMLID_846_">
			<path id="XMLID_845_" style="fill:#2CB79A;" d="M327.96,118.76v179.99c0,16.11-13.07,29.18-29.18,29.18h-134.8V89.58h134.8
				C314.89,89.58,327.96,102.639,327.96,118.76z"/>
		</g>
	</g>
	<g id="XMLID_36_">
		<rect id="XMLID_847_" x="34.39" y="89.58" style="fill:#FCE98E;" width="27.34" height="238.35"/>
		<rect id="XMLID_851_" x="266.23" y="89.58" style="fill:#FAE16E;" width="27.34" height="238.35"/>
	</g>
	<g id="XMLID_4_">
		<circle id="XMLID_855_" style="fill:#FAE16E;" cx="210.972" cy="177.625" r="33.25"/>
		
			<rect id="XMLID_32_" x="89.513" y="196.77" transform="matrix(-0.9496 0.3134 -0.3134 -0.9496 298.5548 391.5252)" style="fill:#FCE98E;" width="56.59" height="45.979"/>
	</g>
</g>
</svg>