<?xml version="1.0" encoding="iso-8859-1"?>

<!DOCTYPE svg PUBLIC "-//W3C//DTD SVG 1.1//EN" "http://www.w3.org/Graphics/SVG/1.1/DTD/svg11.dtd">
<!-- Uploaded to: SVG Repo, www.svgrepo.com, Generator: SVG Repo Mixer Tools -->
<svg version="1.1" id="_x36_" xmlns="http://www.w3.org/2000/svg" xmlns:xlink="http://www.w3.org/1999/xlink" 
	 viewBox="0 0 512 512"  xml:space="preserve">
<g>
	<polygon style="opacity:0.1;fill:#FFFFFF;" points="435.534,369.283 435.534,369.283 435.534,369.283 	"/>
	<g>
		<path style="fill:#FAF6E0;" d="M316.424,321.359c3.023,9.467,4.683,19.537,4.683,29.994c0,54.523-44.355,98.877-98.868,98.877
			c-10.46,0-20.532-1.661-30.002-4.683l-13.974,13.973c13.589,5.547,28.417,8.663,43.976,8.663
			c64.419,0,116.82-52.41,116.82-116.829c0-15.557-3.116-30.384-8.659-43.971L316.424,321.359z"/>
		<path style="fill:#BCB9A5;" d="M123.361,351.353c0-54.514,44.354-98.868,98.877-98.868c44.057,0,81.45,28.984,94.186,68.874
			l13.976-13.977c-17.411-42.674-59.299-72.849-108.162-72.849c-64.419,0-116.829,52.401-116.829,116.82
			c0,48.86,30.18,90.753,72.853,108.167l13.974-13.973C152.343,432.81,123.361,395.416,123.361,351.353z"/>
	</g>
	<g>
		<g>
			<path style="fill:#EDEACF;" d="M371.374,295.885c-2.991-8.225-6.646-16.034-10.966-23.429
				c-5.815-10.302-12.711-19.855-20.52-28.412c-2.991-3.241-6.148-6.397-9.388-9.306c-0.25-0.414-0.582-0.663-0.831-0.829
				c-1.163-1.162-2.41-2.243-3.573-3.239c-7.56-6.564-15.701-12.298-24.092-17.281c-4.154-2.41-8.474-4.653-12.877-6.563
				c-1.911-0.998-3.905-1.827-5.899-2.659c-0.499-0.333-0.914-0.497-1.412-0.582c-3.49-1.495-6.979-2.74-10.634-3.988
				c-2.824-0.913-5.649-1.827-8.557-2.576c-9.056-2.408-18.361-4.154-27.748-4.983c-22.847-1.994-46.607,0.915-69.537,9.47
				c-4.32,1.58-8.557,3.324-12.628,5.401c-15.037,6.894-28.496,16.117-40.21,27.001c-0.333,0.333-0.748,0.663-1.08,0.996
				c-1.578,1.497-3.074,2.992-4.569,4.487c-5.732,5.898-11.133,12.379-15.951,19.192c-0.664,0.913-1.329,1.828-1.994,2.823
				c-1.662,2.41-3.323,4.902-4.818,7.562c-2.077,3.156-3.905,6.563-5.65,10.135c-0.249,0.25-0.415,0.665-0.498,0.996
				c-3.24,6.15-5.981,12.713-8.225,19.192c-2.409,6.896-4.32,14.04-5.816,21.186c-0.415,2.493-0.914,5.069-1.246,7.559
				c-3.988,26.088-1.579,53.172,8.225,79.507c2.659,7.146,5.732,13.957,9.305,20.439c15.037,27.913,37.717,49.928,64.386,64.386
				c39.296,21.433,87.316,26.335,132.427,9.636C359.743,471.18,402.196,378.797,371.374,295.885z M326.594,311.172
				c0.166,0.414,0.332,0.746,0.415,1.162c21.683,58.404-8.225,123.622-66.463,145.221c-26.835,9.969-55.081,9.139-79.839-0.416
				c-29.327-11.131-53.752-34.394-65.465-66.047c-5.068-13.377-7.228-27.084-7.145-40.377c0.25-8.638,1.246-17.279,3.323-25.587
				c0.332-1.495,0.665-2.992,1.163-4.487c1.911-6.73,4.403-13.291,7.643-19.356c1.329-2.992,2.908-5.817,4.652-8.726
				c0.498-0.83,0.997-1.744,1.578-2.574c1.745-2.576,3.406-4.985,5.317-7.312c2.659-3.572,5.649-6.894,8.806-10.135
				c0.997-1.079,2.077-2.077,3.157-3.073c8.308-7.975,18.111-14.622,28.911-19.774c0.083-0.083,0.083-0.083,0.166-0.083
				c2.908-1.412,5.898-2.657,8.972-3.821c16.284-5.981,32.816-8.058,49.1-6.564h0.083c4.486,0.333,8.806,1.081,13.209,1.829
				c2.991,0.746,5.816,1.329,8.723,2.241c4.071,1.164,7.976,2.659,11.963,4.486c1.413,0.499,2.742,1.081,4.154,1.661v0.083
				c4.985,2.243,9.721,4.902,14.29,7.977c5.317,3.405,10.302,7.393,14.954,11.713c0.748,0.749,1.495,1.412,2.243,2.16
				c1.994,1.994,3.905,3.988,5.733,6.148c7.726,8.724,14.206,18.859,19.025,30.156C325.68,308.763,326.179,310.008,326.594,311.172z
				"/>
			<path style="fill:#EDEACF;" d="M353.678,302.449c-2.077-5.483-4.403-10.884-7.228-16.034c-0.747-1.58-1.578-3.075-2.492-4.57
				c-2.326-4.154-4.901-8.225-7.643-12.046c-3.24-4.57-6.646-8.89-10.302-12.878c-2.742-2.992-5.567-5.815-8.391-8.391
				c-1.329-1.331-2.575-2.493-3.905-3.574c-4.652-3.988-9.554-7.726-14.622-11.048c-2.16-1.414-4.32-2.826-6.563-4.071
				c-3.822-2.243-7.643-4.237-11.465-5.981c-1.579-0.749-3.24-1.495-4.819-2.16h-0.249l-1.662-0.748
				c-3.074-1.328-6.065-2.41-9.055-3.406c-2.493-0.832-4.902-1.497-7.644-2.243c-8.141-2.16-16.366-3.655-24.342-4.403
				c-4.071-0.333-8.142-0.582-12.212-0.582c-16.782,0-33.315,2.992-49.183,8.89c-3.821,1.412-7.56,2.992-11.215,4.736
				c-6.148,2.907-12.047,6.231-17.613,9.969c-6.563,4.32-12.794,9.304-18.609,14.954c-1.412,1.162-2.742,2.491-4.071,3.821
				c-1.413,1.412-2.825,2.908-4.154,4.487c-3.49,3.821-6.813,7.975-9.803,12.212l-1.994,2.74c-1.329,1.996-2.659,4.073-3.904,6.231
				l-0.582,0.832c-1.495,2.326-2.825,4.819-4.071,7.31l-0.083,0.333l-1.08,2.077c-2.659,5.069-5.068,10.634-7.145,16.535
				c-2.16,6.478-3.905,12.792-5.068,18.607c-0.416,2.243-0.831,4.487-1.163,6.896c-3.655,23.678-1.163,47.271,7.228,70.037
				c20.437,55.08,73.857,92.05,132.759,92.05c16.782,0,33.231-2.907,49.1-8.807C343.459,457.059,380.761,375.558,353.678,302.449z
				 M267.11,475.333c-14.788,5.484-30.241,8.308-45.859,8.308c-54.998,0-104.679-34.56-123.787-85.902
				c-5.566-14.954-8.391-30.822-8.225-47.521c0.166-10.135,1.412-19.94,3.738-29.077c0.333-2.077,0.831-4.071,1.413-5.649
				c2.16-7.975,5.151-15.537,8.806-22.433c1.744-3.904,3.739-7.31,5.151-9.636c0.665-1.328,1.578-2.742,2.409-3.988
				c0.166-0.166,0.25-0.416,0.415-0.582c1.828-2.742,3.656-5.399,5.4-7.393c1.994-2.825,4.154-5.401,6.231-7.645
				c1.495-1.661,2.908-3.156,4.237-4.487c1.246-1.245,2.492-2.491,3.739-3.655c9.138-8.641,19.606-15.951,30.988-21.766
				c0.997-0.499,1.994-0.998,2.991-1.414c3.406-1.661,6.979-3.156,10.551-4.484c14.788-5.401,30.074-8.144,45.361-8.144
				c3.821,0,7.643,0.166,11.464,0.499h0.083c5.4,0.333,10.468,1.247,15.12,1.996l0.748,0.164l2.908,0.665
				c2.659,0.665,5.234,1.329,6.979,1.911c4.736,1.329,9.554,3.073,13.874,5.069c1.745,0.663,3.489,1.412,5.234,2.158
				c0.997,0.499,2.077,1.081,3.157,1.58c4.569,2.243,9.055,4.817,13.376,7.726c6.065,3.821,11.88,8.474,17.529,13.792
				c0.914,0.83,1.828,1.661,2.742,2.574c2.409,2.41,4.736,4.819,6.48,6.979c1.578,1.827,3.156,3.655,4.735,5.566
				c1.496,1.994,2.991,3.988,4.403,6.065c3.739,5.235,6.978,10.884,9.969,16.865c1.246,2.493,2.409,4.986,3.489,7.559
				c0,0,1.495,3.907,1.827,4.736C370.044,373.98,335.234,449.996,267.11,475.333z"/>
		</g>
		<path style="fill:#B6B4B1;" d="M360.407,272.456l-13.957,13.959l-6.978,7.06l-10.551,10.551l-3.655,3.655
			c-4.819-11.297-11.299-21.433-19.025-30.156c-1.828-2.16-3.739-4.154-5.733-6.148c-0.748-0.748-1.495-1.412-2.243-2.16
			c-4.652-4.32-9.637-8.308-14.954-11.713c-4.569-3.075-9.305-5.734-14.29-7.977v-0.083c-1.412-0.58-2.741-1.162-4.154-1.661
			c-3.988-1.827-7.892-3.322-11.963-4.486c-2.908-0.913-5.732-1.495-8.723-2.241c-4.403-0.748-8.723-1.497-13.209-1.829h-0.083
			c-16.284-1.495-32.816,0.582-49.1,6.564c-3.074,1.164-6.065,2.41-8.972,3.821c-0.083,0-0.083,0-0.166,0.083
			c-10.8,5.152-20.603,11.798-28.911,19.774c-1.08,0.996-2.16,1.994-3.157,3.073c-3.157,3.241-6.148,6.564-8.806,10.135
			c-1.911,2.327-3.572,4.736-5.317,7.312c-0.582,0.83-1.08,1.744-1.578,2.574l-2.243-2.241L90.9,258.583
			c4.819-6.813,10.219-13.293,15.951-19.192c1.495-1.495,2.991-2.99,4.569-4.487c0.332-0.333,0.747-0.663,1.08-0.996
			c11.714-10.884,25.173-20.106,40.21-27.001c4.071-2.077,8.308-3.821,12.628-5.401c22.93-8.555,46.69-11.464,69.537-9.47
			c9.388,0.83,18.693,2.576,27.748,4.983c2.908,0.749,5.732,1.663,8.557,2.576c3.655,1.247,7.145,2.493,10.634,3.988
			c0.498,0.085,0.914,0.249,1.412,0.582c1.994,0.832,3.988,1.661,5.899,2.659c4.403,1.911,8.723,4.154,12.877,6.563
			c8.391,4.984,16.533,10.717,24.092,17.281c1.163,0.996,2.41,2.077,3.573,3.239c0.249,0.166,0.581,0.416,0.831,0.829
			c3.24,2.909,6.397,6.065,9.388,9.306C347.696,252.601,354.592,262.155,360.407,272.456z"/>
		<path style="fill:#B6B4B1;" d="M329.537,276.588c-2.836-4.056-5.904-7.936-9.184-11.613c-1.746-2.125-4.028-4.536-6.43-6.938
			c-6.486-6.393-13.285-11.881-20.316-16.427c-6.985-4.619-14.357-8.509-21.748-11.438c-4.296-1.968-9.119-3.751-13.914-5.091
			c-1.709-0.591-4.287-1.229-6.966-1.866l-2.91-0.702l-0.702-0.12c-4.712-0.813-9.775-1.681-15.133-2.033h-0.074
			c-3.816-0.342-7.641-0.517-11.475-0.517c-15.337,0-30.609,2.744-45.372,8.158c-18.256,6.8-34.914,17.619-48.292,31.329
			c-1.275,1.312-2.698,2.809-4.176,4.453l-6.634-6.652c1.358-1.515,2.744-2.994,4.167-4.426
			c14.653-15.004,31.976-26.239,51.526-33.463c15.863-5.904,32.41-8.888,49.207-8.888c4.074,0,8.13,0.185,12.149,0.527
			c8.001,0.73,16.233,2.217,24.409,4.435c2.735,0.702,5.155,1.432,7.585,2.245c2.984,1.016,6.033,2.079,9.091,3.391l1.691,0.73
			l0.185,0.037c5.377,2.227,10.856,4.943,16.288,8.084c7.474,4.37,14.653,9.488,21.231,15.161
			c4.139,3.585,8.269,7.594,12.242,11.918c3.659,4.019,7.123,8.333,10.357,12.898L329.537,276.588z"/>
	</g>
	<g>
		<polygon style="fill:#81A2D5;" points="220.811,351.111 134.907,259.395 110.406,233.276 165.339,233.276 215.659,340.148 		"/>
		<polygon style="fill:#8FB2DE;" points="331.277,0.005 330.737,0.605 330.677,0.665 327.323,4.138 276.044,58.353 225.064,4.498 
			221.35,0.605 220.811,0.005 		"/>
		<polygon style="fill:#C6DAF1;" points="220.811,0.005 220.272,0.605 216.558,4.498 165.638,58.353 111.005,0.665 110.945,0.605 
			110.406,0.005 		"/>
		<polygon style="fill:#6C93CC;" points="276.312,233.301 220.835,351.099 331.247,233.301 		"/>
		<rect x="331.247" y="233.3" style="fill:#BED3EE;" width="0" height="0"/>
		<polygon style="fill:#5789C7;" points="331.247,233.301 294.563,194.544 276.312,233.301 331.247,233.301 331.247,233.301 		"/>
		<polygon style="fill:#95BFE6;" points="110.424,233.301 165.359,233.301 147.107,194.544 		"/>
		<rect x="386.453" y="94.667" style="fill:#81A2D5;" width="0" height="160.618"/>
		<polygon style="fill:#81A2D5;" points="331.247,233.301 441.658,116.65 331.247,116.65 294.563,194.544 		"/>
		<polygon style="fill:#6C93CC;" points="331.247,233.301 441.658,116.65 331.247,116.65 294.563,194.544 		"/>
		<polygon style="fill:#81A2D5;" points="147.127,194.517 110.406,233.276 0,116.641 110.406,116.641 111.125,118.138 
			112.922,121.973 		"/>
		<polygon style="fill:#98C5EA;" points="147.127,194.517 110.406,233.276 0,116.641 110.406,116.641 111.125,118.138 
			112.922,121.973 		"/>
		
			<rect x="306.144" y="58.325" transform="matrix(0.6874 0.7263 -0.7263 0.6874 163.1572 -262.4342)" style="opacity:0.5;fill:#C1E5EF;" width="160.618" height="0"/>
		
			<rect x="306.144" y="58.325" transform="matrix(0.6874 0.7263 -0.7263 0.6874 163.1572 -262.4342)" style="opacity:0.53;fill:#C2E5EB;" width="160.618" height="0"/>
		<polygon style="fill:#C6DAF1;" points="331.247,116.65 441.658,116.65 331.247,0 276.041,58.325 		"/>
		<polygon style="opacity:0.5;fill:#C1E5EF;" points="331.247,116.65 441.658,116.65 331.247,0 276.041,58.325 		"/>
		<polygon style="fill:#7FA3D6;" points="331.247,116.65 441.658,116.65 331.247,0 276.041,58.325 		"/>
		<polygon style="fill:#C6DAF1;" points="165.638,58.353 110.406,116.641 0,116.641 110.406,0.005 110.945,0.605 111.005,0.665 		
			"/>
		<polygon style="opacity:0.5;fill:#C1E5EF;" points="165.638,58.353 110.406,116.641 0,116.641 110.406,0.005 110.945,0.605 
			111.005,0.665 		"/>
		<polygon style="opacity:0.3;fill:#C2E5EB;" points="165.638,58.353 110.406,116.641 0,116.641 110.406,0.005 110.945,0.605 
			111.005,0.665 		"/>
		<polygon style="fill:#C6DAF1;" points="220.835,116.65 276.041,58.325 220.835,0 165.63,58.325 		"/>
		<polygon style="opacity:0.1;fill:#C2E5EB;" points="220.835,116.65 276.041,58.325 220.835,0 165.63,58.325 		"/>
		<polygon style="fill:#C6DAF1;" points="165.359,233.301 220.835,351.099 220.835,351.099 276.312,233.301 		"/>
		<polygon style="opacity:0.1;fill:#C2E5EB;" points="165.359,233.301 220.835,351.099 220.835,351.099 276.312,233.301 		"/>
		<polygon style="fill:#BED3EE;" points="220.835,116.65 147.107,194.544 165.359,233.301 276.312,233.301 294.563,194.544 		"/>
		<polygon style="opacity:0.1;fill:#C2E5EB;" points="220.835,116.65 147.107,194.544 165.359,233.301 276.312,233.301 
			294.563,194.544 		"/>
		<polygon style="fill:#C6DAF1;" points="331.247,116.65 220.835,116.65 294.563,194.544 		"/>
		<polygon style="opacity:0.5;fill:#C1E5EF;" points="331.247,116.65 220.835,116.65 294.563,194.544 		"/>
		<polygon style="fill:#7FA3D6;" points="331.127,116.636 220.711,116.664 294.688,194.536 		"/>
		<polygon style="fill:#C6DAF1;" points="110.424,116.65 147.107,194.544 220.835,116.65 		"/>
		<polygon style="opacity:0.5;fill:#C1E5EF;" points="110.424,116.65 147.107,194.544 220.835,116.65 		"/>
		<polygon style="fill:#AECDEC;" points="110.424,116.65 147.107,194.544 220.835,116.65 		"/>
		<polygon style="fill:#C6DAF1;" points="276.041,58.325 220.835,116.65 331.247,116.65 		"/>
		<polygon style="opacity:0.5;fill:#C1E5EF;" points="276.041,58.325 220.835,116.65 331.247,116.65 		"/>
		<polygon style="opacity:0.53;fill:#C2E5EB;" points="276.041,58.325 220.835,116.65 331.247,116.65 		"/>
		<polygon style="fill:#81A2D5;" points="276.041,58.325 220.835,116.65 331.247,116.65 		"/>
		<polygon style="fill:#C6DAF1;" points="165.63,58.325 110.424,116.65 220.835,116.65 		"/>
		<polygon style="opacity:0.5;fill:#C1E5EF;" points="165.63,58.325 110.424,116.65 220.835,116.65 		"/>
		<polygon style="opacity:0.53;fill:#C2E5EB;" points="165.63,58.325 110.424,116.65 220.835,116.65 		"/>
		<polygon style="opacity:0.4;fill:#C2E5EB;" points="165.63,58.325 110.424,116.65 220.835,116.65 		"/>
		<polygon style="opacity:0.48;fill:#C2E5EB;" points="220.835,0.624 110.424,0.624 165.63,4.479 276.041,4.479 331.247,0.624 		"/>
		<polygon style="opacity:0.48;fill:#C2E5EB;" points="222.325,118.131 2.539,118.134 112.432,121.988 332.218,121.984 
			442.111,118.128 		"/>
	</g>
</g>
</svg>