<?xml version="1.0" encoding="iso-8859-1"?>
<!-- Uploaded to: SVG Repo, www.svgrepo.com, Generator: SVG Repo Mixer Tools -->
<svg height="800px" width="800px" version="1.1" id="Layer_1" xmlns="http://www.w3.org/2000/svg" xmlns:xlink="http://www.w3.org/1999/xlink" 
	 viewBox="0 0 496.182 496.182" xml:space="preserve">
<path style="fill:#D8DBBA;" d="M248.094,0C111.074,0,0,111.063,0,248.091c0,137.012,111.074,248.091,248.094,248.091
	c137.012,0,248.088-111.079,248.088-248.091C496.182,111.063,385.106,0,248.094,0z"/>
<path style="fill:#3F8A8C;" d="M304.106,84.237c0,0-33.14,10.594-57.09,10.594c-23.951,0-54.988-10.594-54.988-10.594
	s-3.963,68.469,54.704,68.469S304.106,84.237,304.106,84.237z"/>
<g>
	<path style="fill:#E2E0DC;" d="M156.633,156.091c-0.25-7.75-3.334-26-3.334-26s-1,29,2.857,44.546
		C156.156,174.637,156.883,163.841,156.633,156.091z"/>
	<path style="fill:#E2E0DC;" d="M340.732,130.091c0,0-3.083,18.25-3.333,26s0.477,18.546,0.477,18.546
		C341.732,159.091,340.732,130.091,340.732,130.091z"/>
</g>
<path style="fill:#BAE2E1;" d="M337.723,174.637c0,0,31.105-45.317,21.342-64.599c-8.449-16.688-54.959-25.802-54.959-25.802
	s-8.395,68.469-57.09,68.469c-48.696,0-54.988-68.469-54.988-68.469s-48.811,9.022-57.062,25.802
	c-9.198,18.705,21.343,64.599,21.343,64.599l12.882,101.454l-16.382,111c0,13.5,17.218,16.847,38.465,16.847h111.483
	c21.247,0,38.466-3.347,38.466-16.847l-16.383-111L337.723,174.637z"/>
<g>
	<path style="fill:#46989E;" d="M192.028,84.237c0,0-48.811,9.022-57.062,25.802c-27.234,55.385-42.445,83.386-46.735,109.386
		c-4.291,25.999,3.402,155.666,3.402,155.666s7.516,0.25,16.016-1.5s11.984-6.5,11.984-6.5s2.307-122.333,5.983-137.667
		c3.677-15.332,30.692-54.787,30.692-54.787l12.883,101.454l-22.348,119c0,13.5,18.308,16.847,40.9,16.847h35.063l9.285-275.859
		C197.884,126.315,192.028,84.237,192.028,84.237z"/>
	<path style="fill:#46989E;" d="M405.801,219.424c-4.291-26-16.736-50.138-46.736-109.386
		c-8.449-16.688-54.959-25.802-54.959-25.802s-7.711,40.302-40.016,51.174l10.623,276.527h31.574
		c22.592,0,40.901-3.347,40.901-16.847l-22.349-119l12.883-101.454c0,0,27.015,39.455,30.691,54.787
		c3.679,15.335,5.986,137.668,5.986,137.668s2.75,3.5,11.25,6.5s16.75,1.5,16.75,1.5S410.092,245.424,405.801,219.424z"/>
</g>
<g>
	<path style="fill:#438F91;" d="M156.633,156.091c-0.25-7.75-3.334-26-3.334-26s-1,29,2.857,44.546
		C156.156,174.637,156.883,163.841,156.633,156.091z"/>
	<path style="fill:#438F91;" d="M340.732,130.091c0,0-3.083,18.25-3.333,26s0.477,18.546,0.477,18.546
		C341.732,159.091,340.732,130.091,340.732,130.091z"/>
</g>
<g>
	<path style="fill:#EFEDE6;" d="M203.907,112.591c-10.833-17.833-11.88-28.354-11.88-28.354s-8.37,8.354-10.453,11.854
		s-5.667,13.667,3,20.333l14.666,10.667l-4,6.667c0,0-3.25,5.333,0,7.333s4,2,11,1.75s25.852-6.763,25.852-6.763
		S214.093,129.36,203.907,112.591z"/>
	<path style="fill:#EFEDE6;" d="M314.608,95.424c-2.083-3.5-10.453-11.855-10.453-11.855s-1.047,10.521-11.88,28.355
		c-10.186,16.768-28.185,23.486-28.185,23.486s18.852,6.514,25.852,6.764s7.75,0.25,11-1.75s0-7.334,0-7.334l-4-6.666l14.666-10.667
		C320.275,109.09,316.691,98.924,314.608,95.424z"/>
</g>
<ellipse style="fill:#5BBABC;" cx="275.491" cy="204.091" rx="6.611" ry="7"/>
<path style="fill:#6ACCCA;" d="M275.49,198.018c-3.168,0-3.168,12.146,0,12.146s5.736-2.719,5.736-6.073
	S278.658,198.018,275.49,198.018z"/>
<ellipse style="fill:#5BBABC;" cx="277.741" cy="251.841" rx="6.611" ry="7"/>
<path style="fill:#6ACCCA;" d="M277.74,245.768c-3.168,0-3.168,12.146,0,12.146s5.736-2.719,5.736-6.073
	S280.908,245.768,277.74,245.768z"/>
<ellipse style="fill:#5BBABC;" cx="273.891" cy="161.761" rx="6.611" ry="7"/>
<path style="fill:#6ACCCA;" d="M273.893,155.684c-3.168,0-3.168,12.148,0,12.148s5.736-2.721,5.736-6.074
	S277.061,155.684,273.893,155.684z"/>
<ellipse style="fill:#5BBABC;" cx="282.151" cy="349.011" rx="6.611" ry="7"/>
<path style="fill:#6ACCCA;" d="M282.156,342.934c-3.168,0-3.168,12.146,0,12.146s5.736-2.719,5.736-6.073
	S285.324,342.934,282.156,342.934z"/>
<ellipse style="fill:#5BBABC;" cx="284.241" cy="399.341" rx="6.611" ry="7"/>
<path style="fill:#6ACCCA;" d="M284.24,393.268c-3.168,0-3.168,12.146,0,12.146s5.736-2.719,5.736-6.073
	S287.408,393.268,284.24,393.268z"/>
<ellipse style="fill:#5BBABC;" cx="279.981" cy="302.171" rx="6.611" ry="7"/>
<path style="fill:#6ACCCA;" d="M279.978,296.101c-3.168,0-3.168,12.147,0,12.147s5.736-2.72,5.736-6.074
	S283.146,296.101,279.978,296.101z"/>
<g>
	<ellipse style="fill:#53ABAD;" cx="219.331" cy="161.421" rx="5.913" ry="2"/>
	<ellipse style="fill:#53ABAD;" cx="219.331" cy="202.761" rx="5.913" ry="2"/>
	<ellipse style="fill:#53ABAD;" cx="218.201" cy="248.761" rx="5.913" ry="2"/>
	<ellipse style="fill:#53ABAD;" cx="217.361" cy="300.761" rx="5.914" ry="2"/>
	<ellipse style="fill:#53ABAD;" cx="215.671" cy="348.761" rx="5.914" ry="2"/>
	<ellipse style="fill:#53ABAD;" cx="214.821" cy="399.761" rx="5.914" ry="2"/>
</g>
</svg>