<?xml version="1.0" encoding="iso-8859-1"?>
<!-- Uploaded to: SVG Repo, www.svgrepo.com, Generator: SVG Repo Mixer Tools -->
<svg version="1.1" id="Layer_1" xmlns="http://www.w3.org/2000/svg" xmlns:xlink="http://www.w3.org/1999/xlink" 
	 viewBox="0 0 496.182 496.182" xml:space="preserve">
<path style="fill:#D8DBBA;" d="M248.094,0C111.074,0,0,111.063,0,248.091c0,137.012,111.074,248.091,248.094,248.091
	c137.012,0,248.088-111.079,248.088-248.091C496.182,111.063,385.106,0,248.094,0z"/>
<rect x="182.431" y="51.191" style="fill:#6F8FA5;" width="130.97" height="13.12"/>
<rect x="185.531" y="55.91" style="fill:#557282;" width="124.29" height="41.755"/>
<polygon style="fill:#8AA5BC;" points="174.632,107.763 141.368,438.043 183.748,445.036 246.813,119.172 "/>
<polygon style="fill:#9EB8CC;" points="141.963,432.129 141.368,438.043 183.748,445.036 184.778,439.719 "/>
<polygon style="fill:#8AA5BC;" points="321.539,107.763 249.36,119.172 312.424,445.036 354.803,438.043 "/>
<polygon style="fill:#9EB8CC;" points="354.219,432.129 311.404,439.719 312.434,445.036 354.814,438.043 "/>
<path style="fill:#8AA5BC;" d="M313.537,51.146c0,0-31.86,10.863-65.6,10.863c-33.738,0-65.801-10.863-65.801-10.863l-7.541,57.382
	l70.613,17.91h5.477l70.736-18.397L313.537,51.146z"/>
<g>
	<polygon style="fill:#819FB5;" points="255.862,69.932 254.584,110.828 250.111,117.858 256.244,111.724 257.395,69.932 	"/>
	<path style="fill:#819FB5;" d="M205.924,66.098c-5.272,29.714-29.617,28.946-29.617,28.946l-0.479,4.218
		c32.3-2.684,33.835-32.492,33.835-32.492L205.924,66.098z"/>
</g>
<g>
	<polygon style="fill:#849EB2;" points="243.209,69.55 241.484,69.55 244.87,117.345 	"/>
	<path style="fill:#849EB2;" d="M313.537,51.146c0,0-31.86,10.863-65.6,10.863c-33.738,0-65.801-10.863-65.801-10.863l-1.141,8.679
		c6.938,2.184,36.272,10.807,66.938,10.807c30.762,0,60.022-8.678,66.802-10.828L313.537,51.146z"/>
</g>
<path style="fill:#7792A5;" d="M314.457,58.015c-4.624,1.507-34.967,11.007-66.518,11.007c-31.504,0-61.957-9.51-66.681-11.037
	l-0.263,1.84c6.938,2.184,36.272,10.807,66.938,10.807c30.762,0,60.022-8.678,66.802-10.828L314.457,58.015z"/>
<path style="fill:#849EB2;" d="M214.279,58.678c0,0-1.196-0.586-2.694-0.785c-1.497-0.199-3.202-0.192-3.202-0.192
	s-2.268,5.331,0.471,13.112c0,0,1.437,0.452,2.629,0.654c1.193,0.2,3.068,0.35,3.068,0.35S210.502,63.088,214.279,58.678z"/>
<path style="fill:#8EA9BA;" d="M213.238,58.608c0,0-0.67-0.561-1.756-0.688c-1.086-0.129-2.332-0.043-2.332-0.043
	s-1.822,5.094,0.248,12.619c0,0,1.029,0.382,1.892,0.525c0.863,0.145,2.048,0.236,2.048,0.236S210.269,63.16,213.238,58.608z"/>
<path style="fill:#8AA5B5;" d="M313.537,51.146c0,0-31.86,10.863-65.6,10.863c-1.195,0-2.389-0.015-3.578-0.04
	c0,0-2.685,1.732-2.685,4.418c0,2.684,2.685,4.201,2.685,4.201c1.191,0.027,2.385-1.566,3.58-1.566
	c31.551,0,61.894-9.5,66.518-11.007l0.279,1.788L313.537,51.146z"/>
<path style="fill:#7B9AB2;" d="M314.457,58.015c-4.624,1.507-34.967,11.007-66.518,11.007c-1.195,0-2.389-0.02-3.58-0.047
	l-1.806-0.031c0.847,1.097,1.806,1.645,1.806,1.645c1.189,0.025,2.381,0.043,3.575,0.043c30.762,0,60.022-8.678,66.802-10.828
	L314.457,58.015z"/>
<circle style="fill:#B9BEC1;" cx="249.631" cy="66.771" r="2.875"/>
<path style="fill:#819FB5;" d="M319.506,95.044c0,0-24.346,0.768-29.617-28.946l-3.738,0.672c0,0,1.533,29.809,33.834,32.492
	L319.506,95.044z"/>
<path style="fill:#849EB2;" d="M287.428,57.7c0,0-1.703-0.007-3.201,0.192s-2.694,0.785-2.694,0.785
	c3.778,4.41-0.271,13.139-0.271,13.139s1.875-0.149,3.067-0.35c1.192-0.202,2.63-0.654,2.63-0.654
	C289.696,63.031,287.428,57.7,287.428,57.7z"/>
<path style="fill:#8EA9BA;" d="M286.662,57.877c0,0-1.246-0.086-2.333,0.043c-1.087,0.127-1.756,0.688-1.756,0.688
	c2.97,4.553-0.101,12.65-0.101,12.65s1.187-0.092,2.049-0.236s1.892-0.525,1.892-0.525
	C288.483,62.971,286.662,57.877,286.662,57.877z"/>
</svg>